<svg xmlns="http://www.w3.org/2000/svg" width="744.094" height="1052.362"><defs><clipPath><path transform="matrix(.14 0 0 .14 110.108 -176.177)" d="M851.89 3678.643a494.278 494.278 0 1 1-988.557 0 494.278 494.278 0 1 1 988.557 0z"/></clipPath><clipPath id="b"><path transform="matrix(.171 0 0 .161 91.747 -176.153)" d="M851.89 3678.643a494.278 494.278 0 1 1-988.557 0 494.278 494.278 0 1 1 988.557 0z"/></clipPath><clipPath id="a"><path d="M851.89 3678.643a494.278 494.278 0 1 1-988.557 0 494.278 494.278 0 1 1 988.557 0z"/></clipPath></defs><g stroke="#000"><path d="M851.89 3678.643a494.278 494.278 0 1 1-988.557 0 494.278 494.278 0 1 1 988.557 0z" transform="matrix(.548 0 0 .548 165.451 -1507.888)" clip-path="url(#a)" fill="#fff"/><path clip-path="url(#b)" d="M662.311 443.816c0 131.736-100.933 238.529-225.44 238.529-124.507 0-225.44-106.793-225.44-238.529s100.933-238.529 225.44-238.529c124.507 0 225.44 106.793 225.44 238.529z"/></g></svg>